<?xml version="1.0" encoding="UTF-8"?>
<svg width="140" height="24" version="1.1" viewBox="0 0 37.042 6.35" xmlns="http://www.w3.org/2000/svg" xmlns:cc="http://creativecommons.org/ns#" xmlns:dc="http://purl.org/dc/elements/1.1/" xmlns:rdf="http://www.w3.org/1999/02/22-rdf-syntax-ns#">
 <metadata>
  <rdf:RDF>
   <cc:Work rdf:about="">
    <dc:format>image/svg+xml</dc:format>
    <dc:type rdf:resource="http://purl.org/dc/dcmitype/StillImage"/>
    <dc:title/>
   </cc:Work>
  </rdf:RDF>
 </metadata>
 <g aria-label="NicFitMTG">
  <g transform="translate(-1.1024 -1.3474)" stroke="#000" stroke-width=".15875">
   <g fill="#006900">
    <path d="m1.4782 1.8689v-0.03348h1.4697l2.0427 2.9282h0.03349v-1.9422q0-0.21952-0.02605-0.36835-0.02605-0.15255-0.07069-0.24929-0.04093-0.096738-0.13394-0.15999-0.0893-0.066972-0.18604-0.10046-0.09674-0.0372-0.26417-0.074412v-0.03348h1.745v0.03348l-0.41672 0.25673v5.395h-0.033489l-2.9096-4.1374h-0.02977v2.8054q0 0.27533 0.02977 0.44276 0.03349 0.16371 0.1265 0.26789 0.09302 0.10046 0.20092 0.14883 0.11162 0.04464 0.31998 0.09302v0.02976h-1.745v-0.02976l0.42044-0.26045v-4.4648l-0.18976-0.29021z"/>
    <path d="m6.7058 7.1709v-0.02976l0.42044-0.26045v-3.5347l-0.42044-0.26045v-0.02976h1.9422v0.02976l-0.41672 0.26045v3.5347l0.41672 0.26045v0.02976z"/>
    <path d="m9.2284 5.1133q0-0.41672 0.13394-0.79623 0.13394-0.37951 0.38323-0.67717 0.24929-0.30138 0.6474-0.47998 0.39812-0.17859 0.88553-0.17859 0.61764 0 1.1571 0.30509l-0.15999 1.2799h-0.02977q-0.07441-0.26789-0.15254-0.45765-0.07813-0.19348-0.18604-0.36463-0.1079-0.17116-0.25301-0.25673-0.14139-0.089298-0.31626-0.089298-0.44648 0-0.68833 0.4316-0.24185 0.42788-0.24185 1.2092 0 0.94133 0.24185 1.3655 0.24185 0.42416 0.70321 0.42416 0.3237 0 0.54322-0.3051 0.21952-0.30509 0.37951-0.87064h0.02977l0.15999 1.2576q-0.52834 0.33486-1.265 0.33486-0.48369 0-0.8632-0.15999-0.37951-0.15999-0.62136-0.44648-0.23812-0.28649-0.36463-0.67345-0.12278-0.38695-0.12278-0.85204z"/>
   </g>
   <g fill="#393939">
    <path d="m13.12 7.1709v-0.02976l0.42044-0.26045v-4.7551l-0.42044-0.25673v-0.03348h3.3524v1.5627h-0.02977q-0.04837-0.20092-0.13394-0.37207-0.08558-0.17115-0.22324-0.3237-0.13394-0.15255-0.34603-0.24185-0.21208-0.089292-0.47625-0.089292h-0.58043v1.812h1.4474v0.02976l-0.61764 0.54322h-0.82972v1.5069q0 0.1786 0.04093 0.3237 0.04093 0.14511 0.10418 0.23441 0.06325 0.0893 0.15255 0.15999 0.09302 0.06697 0.17115 0.10046 0.08186 0.03348 0.17859 0.05952v0.02976z"/>
    <path d="m16.856 7.1709v-0.02976l0.42044-0.26045v-3.5347l-0.42044-0.26045v-0.02976h1.9422v0.02976l-0.41672 0.26045v3.5347l0.41672 0.26045v0.02976z"/>
    <path d="m19.222 4.4882v-1.4325h3.3933v1.4325h-0.02977q-0.04837-0.23812-0.1079-0.39067-0.05581-0.15627-0.16371-0.30138-0.10418-0.1451-0.27905-0.21208-0.17487-0.070692-0.42416-0.070692h-0.13767v2.7496q0 0.1786 0.04093 0.3237 0.04093 0.14511 0.10418 0.23441 0.06325 0.0893 0.15255 0.15999 0.09302 0.06697 0.17115 0.10046 0.08186 0.03348 0.17859 0.05952v0.02976h-2.3999v-0.02976l0.6474-0.26045v-3.3672h-0.13766q-0.25301 0-0.42788 0.066972-0.17115 0.066972-0.27905 0.21208-0.10418 0.14139-0.16371 0.29766-0.05581 0.15627-0.10418 0.39811z"/>
   </g>
   <path d="m22.958 7.1709v-0.02976l0.42044-0.26045v-4.7476l-0.42044-0.26417v-0.03348h1.5032l1.3915 3.5458h0.03349l1.3692-3.5458h1.4176v0.03348l-0.41672 0.25673v4.7551l0.41672 0.26045v0.02976h-1.5627v-3.4751h-0.02977l-1.4771 3.8174h-0.02977l-1.518-3.7021h-0.02977v3.3598z" fill="#d2d2d2"/>
   <path d="m29.09 3.5506v-1.7152h4.0407v1.7152h-0.02976q-0.04836-0.22696-0.13022-0.42044-0.08185-0.1972-0.2158-0.37579-0.13022-0.1786-0.33114-0.27905-0.20092-0.10418-0.4502-0.10418h-0.29022v3.8919q0 0.1786 0.04093 0.3237 0.04093 0.14511 0.10418 0.23441 0.06325 0.0893 0.15255 0.15999 0.09302 0.06697 0.17115 0.10046 0.08186 0.03348 0.1786 0.05952v0.02976h-2.4371v-0.02976l0.6474-0.26045v-4.5095h-0.23812q-0.21208 0-0.39439 0.070692-0.17859 0.066972-0.3051 0.17859-0.1265 0.11162-0.22696 0.26789-0.09674 0.15627-0.15627 0.31998-0.05953 0.15999-0.09674 0.34231z" fill="#003dd6"/>
   <path d="m33.48 4.5031q0-0.61019 0.20092-1.1274 0.20092-0.5209 0.54322-0.87064 0.34603-0.35347 0.80367-0.54694 0.46137-0.1972 0.97483-0.1972 1.1423 0 1.7971 0.65485l-0.8446 1.172-0.02232-0.02232q0.02232-0.20092 0.02232-0.33486 0-0.42788-0.23068-0.69949-0.22697-0.27533-0.68461-0.27533-0.59531 0-0.94878 0.56555t-0.35347 1.6073q0 1.1869 0.33114 1.7562 0.33115 0.56555 1.0418 0.56555 0.38695 0 0.71438-0.16v-0.79995q0-0.5209-0.24185-0.81111-0.24185-0.29394-0.70321-0.44648v-0.02976h2.0129v2.7422h-0.02976l-0.68833-0.36463q-0.56927 0.36463-1.2948 0.36463-0.5209 0-0.95622-0.17487-0.43532-0.17488-0.75902-0.50974-0.3237-0.33859-0.50602-0.86321-0.1786-0.52834-0.1786-1.1943z" fill="#b82728"/>
  </g>
 </g>
</svg>
